<svg xmlns="http://www.w3.org/2000/svg" viewBox="0 0 90 90"><defs><style>.cls-1{fill:#3f97ff;}.cls-2{fill:#4245d7;}.cls-3{fill:#e64c3c;}.cls-4{fill:#ecf0f1;}.cls-5{fill:#ffc60b;}.cls-6{fill:#934921;}.cls-7{fill:#ffe69f;}</style></defs><title>drum</title><g id="drum"><polygon class="cls-1" points="60.9 44.97 29.11 44.97 45 81.57 60.9 44.97"/><polygon class="cls-2" points="46.63 81.7 78.42 81.7 62.53 45.09 46.63 81.7"/><polygon class="cls-3" points="11.58 81.7 43.37 81.7 27.47 45.09 11.58 81.7"/><polygon class="cls-3" points="80.26 81.7 80.26 44.97 64.16 44.97 80.11 81.7 80.26 81.7"/><polygon class="cls-2" points="9.74 44.97 9.74 81.7 9.89 81.7 25.84 44.97 9.74 44.97"/><polygon class="cls-4" points="64.65 44.09 62.96 44.09 62.53 43.09 62.09 44.09 60.4 44.09 45 79.57 29.6 44.09 27.91 44.09 27.47 43.09 27.04 44.09 25.35 44.09 8.64 82.58 12.07 82.58 27.47 47.1 42.88 82.58 44.56 82.58 45 83.58 45.44 82.58 47.13 82.58 62.53 47.1 77.93 82.58 81.36 82.58 64.65 44.09"/><rect class="cls-5" x="5.83" y="41.67" width="78.33" height="5.42" rx="1.82" ry="1.82"/><rect class="cls-5" x="5.83" y="79.58" width="78.33" height="5.42" rx="1.82" ry="1.82"/><rect class="cls-6" x="70.64" y="0.82" width="2.5" height="34.59" transform="translate(33.86 -45.53) rotate(45)"/><circle class="cls-7" cx="56.97" cy="33.03" r="5" transform="translate(-6.67 49.96) rotate(-45)"/><rect class="cls-6" x="16.86" y="0.82" width="2.5" height="34.59" transform="translate(43.73 18.11) rotate(135)"/><circle class="cls-7" cx="33.03" cy="33.03" r="5" transform="translate(-13.68 33.03) rotate(-45)"/></g></svg>